<?xml version="1.0" encoding="UTF-8"?>
<svg width="24px" height="24px" viewBox="0 0 24 24" version="1.1" xmlns="http://www.w3.org/2000/svg" xmlns:xlink="http://www.w3.org/1999/xlink">
    <!-- Generator: Sketch 43.2 (39069) - http://www.bohemiancoding.com/sketch -->
    <title>ic_medium</title>
    <desc>Created with Sketch.</desc>
    <defs></defs>
    <g id="Page-1" stroke="none" stroke-width="1" fill="none" fill-rule="evenodd">
        <g id="ic_medium" fill-rule="nonzero" fill="#FFFFFF">
            <g id="ico-medium" transform="translate(0.000000, 2.000000)">
                <path d="M2.84593836,4.079953 C2.87575656,3.77070325 2.76340764,3.46504438 2.5434174,3.25690775 L0.30252096,0.423280375 L0.30252096,0 L7.26050424,0 L12.6386555,12.3809522 L17.3669468,0 L24,0 L24,0.423280375 L22.0840337,2.35155788 C21.9188563,2.48372075 21.83692,2.70093962 21.8711485,2.91593175 L21.8711485,17.0840683 C21.83692,17.2990604 21.9188563,17.5162793 22.0840337,17.6484421 L23.9551822,19.5767196 L23.9551822,20 L14.5434174,20 L14.5434174,19.5767196 L16.4817928,17.601411 C16.6722689,17.4015285 16.6722689,17.3427396 16.6722689,17.0370371 L16.6722689,5.58495 L11.2829131,19.9529689 L10.5546218,19.9529689 L4.280112,5.58495 L4.280112,15.2145796 C4.2277974,15.6194364 4.35589368,16.0270385 4.62745092,16.3198119 L7.1484594,19.5296885 L7.1484594,19.9529689 L0,19.9529689 L0,19.5296885 L2.52100836,16.3198119 C2.79058848,16.0265531 2.91121536,15.6162471 2.84593836,15.2145796 L2.84593836,4.079953 Z" id="Shape"></path>
            </g>
        </g>
    </g>
</svg>