<?xml version="1.0" encoding="UTF-8"?>
<svg width="24px" height="24px" viewBox="0 0 24 24" version="1.1" xmlns="http://www.w3.org/2000/svg" xmlns:xlink="http://www.w3.org/1999/xlink">
    <!-- Generator: Sketch 43.2 (39069) - http://www.bohemiancoding.com/sketch -->
    <title>ic_twitter</title>
    <desc>Created with Sketch.</desc>
    <defs></defs>
    <g id="Page-1" stroke="none" stroke-width="1" fill="none" fill-rule="evenodd">
        <g id="ic_twitter" fill-rule="nonzero" fill="#FFFFFF">
            <g id="ic_twitter-copy-2" transform="translate(1.000000, 3.000000)">
                <path d="M21.9890672,2.18708 C21.8835927,3.00023624 20.6828676,3.81607689 19.955389,4.43415132 C20.6731894,14.8271753 8.71764562,21.3102458 0,16.0437851 C2.44500204,16.0618279 5.1549002,15.4026952 6.60940937,14.046452 C4.49463136,13.7099766 2.99634623,12.7680126 2.41498167,10.9255831 C3.03443177,10.8681544 3.90381263,11.0562391 4.32154379,10.8007801 C2.38706721,10.0791578 0.857417515,8.96006683 0.762651731,6.43144049 C1.45168635,6.50369953 1.80986965,6.90090422 2.66916904,6.80598171 C1.41826069,6.01826136 -0.0101262729,3.02303172 1.27107128,0.813894191 C3.5412831,3.28632395 6.37525051,5.20510512 10.8038819,5.55764298 C9.70527088,0.969149912 15.8981589,-1.87403649 18.6843625,1.43808556 C19.7676049,1.21202302 20.6805377,0.818690924 21.6077189,0.439396972 C21.2279837,1.48130016 20.4565947,2.13832055 19.7011568,2.81127137 C20.5222363,2.66063635 21.38978,2.55563631 21.9890672,2.18708 Z" id="Shape"></path>
            </g>
        </g>
    </g>
</svg>